<svg width="935" height="169" viewBox="0 0 935 169" fill="none" xmlns="http://www.w3.org/2000/svg">
<path d="M115.573 9.04693L37.8396 9.01537C16.9414 9.00688 0.00686569 25.9414 0.0153349 46.8396L0.0458343 122.098C0.0543036 142.996 17.0025 159.945 37.9008 159.953L115.634 159.985C136.532 159.993 153.467 143.059 153.458 122.16L153.428 46.9019C153.419 26.0037 136.471 9.05542 115.573 9.04693Z" fill="black"/>
<path fill-rule="evenodd" clip-rule="evenodd" d="M77.1178 111.838C76.2259 111.855 68.9235 112.042 63.369 113.772C57.4456 115.618 53.0152 115.403 50.7157 115.499C48.4162 115.597 37.9753 115.199 31.1591 110.243C24.3428 105.289 19.4498 95.6461 19.675 85.2379C19.9002 74.8316 25.6679 64.6866 40.9766 57.9839C52.1549 53.0907 65.1129 51.4667 77.1833 51.4716C89.2518 51.4765 102.211 53.111 113.393 58.0133C128.708 64.7284 134.485 74.8782 134.719 85.2847C134.952 95.693 130.068 105.332 123.253 110.281C116.441 115.231 106.002 115.62 103.701 115.52C101.401 115.423 96.973 115.634 91.0481 113.783C85.1213 111.934 77.2077 111.838 77.2077 111.838L77.1178 111.838Z" fill="white"/>
<path d="M51.8036 75.2006C57.1955 74.9448 61.7211 77.1515 65.4606 81.7101C68.129 84.962 68.4142 89.1299 66.306 92.0827C64.1717 95.0746 60.8742 95.17 57.9057 92.3258C53.34 87.9557 50.3633 87.9361 45.6613 92.2402C42.3949 95.2317 38.922 95.1404 36.9978 91.7298C34.8514 87.9275 35.5643 84.442 38.2618 81.4249C42.1413 77.0859 46.6801 74.9613 51.8036 75.2006Z" fill="black"/>
<path d="M101.26 74.7006C106.652 74.4448 111.177 76.6515 114.917 81.2101C117.585 84.462 117.87 88.6299 115.762 91.5827C113.628 94.5746 110.33 94.67 107.362 91.8258C102.796 87.4557 99.8194 87.4361 95.1174 91.7402C91.8509 94.7317 88.3781 94.6404 86.4538 91.2298C84.3074 87.4275 85.0203 83.942 87.7179 80.9249C91.5974 76.5859 96.1361 74.4613 101.26 74.7006Z" fill="black"/>
<path d="M212.154 132V42.72H247.432C248.3 42.72 249.333 42.7613 250.532 42.844C251.73 42.8853 252.888 43.0093 254.004 43.216C258.84 43.96 262.89 45.6133 266.156 48.176C269.462 50.7387 271.942 53.9833 273.596 57.91C275.249 61.7953 276.076 66.1147 276.076 70.868C276.076 77.7707 274.278 83.764 270.682 88.848C267.086 93.8907 261.816 97.0527 254.872 98.334L250.656 99.016H223.19V132H212.154ZM265.288 132L247.68 95.668L258.592 92.32L277.936 132H265.288ZM223.19 88.538H247.06C247.845 88.538 248.734 88.4967 249.726 88.414C250.759 88.3313 251.73 88.1867 252.64 87.98C255.492 87.3187 257.806 86.12 259.584 84.384C261.402 82.6067 262.725 80.54 263.552 78.184C264.378 75.7867 264.792 73.348 264.792 70.868C264.792 68.388 264.378 65.97 263.552 63.614C262.725 61.2167 261.402 59.1293 259.584 57.352C257.806 55.5747 255.492 54.376 252.64 53.756C251.73 53.508 250.759 53.3633 249.726 53.322C248.734 53.2393 247.845 53.198 247.06 53.198H223.19V88.538ZM318.127 133.86C311.555 133.86 305.81 132.413 300.891 129.52C296.014 126.585 292.211 122.514 289.483 117.306C286.755 112.057 285.391 105.939 285.391 98.954C285.391 91.638 286.734 85.314 289.421 79.982C292.108 74.6087 295.848 70.4753 300.643 67.582C305.479 64.6473 311.142 63.18 317.631 63.18C324.368 63.18 330.093 64.73 334.805 67.83C339.558 70.93 343.113 75.3527 345.469 81.098C347.866 86.8433 348.9 93.684 348.569 101.62H337.409V97.652C337.285 89.4267 335.611 83.2887 332.387 79.238C329.163 75.146 324.368 73.1 318.003 73.1C311.183 73.1 305.996 75.2907 302.441 79.672C298.886 84.0533 297.109 90.336 297.109 98.52C297.109 106.415 298.886 112.532 302.441 116.872C305.996 121.212 311.059 123.382 317.631 123.382C322.054 123.382 325.898 122.369 329.163 120.344C332.428 118.319 334.991 115.405 336.851 111.602L347.453 115.26C344.849 121.171 340.922 125.759 335.673 129.024C330.465 132.248 324.616 133.86 318.127 133.86ZM293.389 101.62V92.754H342.865V101.62H293.389ZM375.575 132L351.271 65.04H362.431L381.217 117.926L399.941 65.04H411.163L386.859 132H375.575ZM421.137 53.198V41.79H432.173V53.198H421.137ZM421.137 132V65.04H432.173V132H421.137ZM473.592 133.798C465.615 133.798 459.063 132.062 453.938 128.59C448.854 125.077 445.733 120.179 444.576 113.896L455.86 112.098C456.769 115.735 458.857 118.629 462.122 120.778C465.387 122.886 469.438 123.94 474.274 123.94C478.862 123.94 482.458 122.989 485.062 121.088C487.666 119.187 488.968 116.603 488.968 113.338C488.968 111.437 488.534 109.907 487.666 108.75C486.798 107.551 485 106.435 482.272 105.402C479.585 104.369 475.514 103.129 470.058 101.682C464.147 100.111 459.497 98.4787 456.108 96.784C452.719 95.0893 450.301 93.126 448.854 90.894C447.407 88.662 446.684 85.9547 446.684 82.772C446.684 78.8453 447.759 75.4147 449.908 72.48C452.057 69.504 455.054 67.21 458.898 65.598C462.783 63.986 467.289 63.18 472.414 63.18C477.498 63.18 482.045 63.986 486.054 65.598C490.063 67.21 493.287 69.504 495.726 72.48C498.206 75.4147 499.673 78.8453 500.128 82.772L488.844 84.818C488.307 81.222 486.571 78.3907 483.636 76.324C480.743 74.2573 477.002 73.162 472.414 73.038C468.074 72.8727 464.54 73.6373 461.812 75.332C459.125 77.0267 457.782 79.3207 457.782 82.214C457.782 83.826 458.278 85.2107 459.27 86.368C460.303 87.5253 462.184 88.6207 464.912 89.654C467.681 90.6873 471.691 91.8653 476.94 93.188C482.851 94.676 487.501 96.3087 490.89 98.086C494.321 99.822 496.759 101.889 498.206 104.286C499.653 106.642 500.376 109.556 500.376 113.028C500.376 119.476 497.999 124.56 493.246 128.28C488.493 131.959 481.941 133.798 473.592 133.798ZM512.81 53.198V41.79H523.846V53.198H512.81ZM512.81 132V65.04H523.846V132H512.81ZM568.489 133.86C561.834 133.86 556.089 132.351 551.253 129.334C546.458 126.317 542.759 122.142 540.155 116.81C537.551 111.478 536.249 105.361 536.249 98.458C536.249 91.4313 537.572 85.2727 540.217 79.982C542.862 74.6913 546.603 70.5787 551.439 67.644C556.275 64.668 561.958 63.18 568.489 63.18C575.185 63.18 580.951 64.6887 585.787 67.706C590.623 70.682 594.322 74.836 596.885 80.168C599.489 85.4587 600.791 91.5553 600.791 98.458C600.791 105.443 599.489 111.602 596.885 116.934C594.281 122.225 590.561 126.379 585.725 129.396C580.889 132.372 575.144 133.86 568.489 133.86ZM568.489 123.382C575.433 123.382 580.6 121.067 583.989 116.438C587.378 111.809 589.073 105.815 589.073 98.458C589.073 90.894 587.358 84.88 583.927 80.416C580.496 75.9107 575.35 73.658 568.489 73.658C563.818 73.658 559.974 74.712 556.957 76.82C553.94 78.928 551.687 81.842 550.199 85.562C548.711 89.282 547.967 93.5807 547.967 98.458C547.967 105.981 549.703 112.015 553.175 116.562C556.647 121.109 561.752 123.382 568.489 123.382ZM659.64 132V98.458C659.64 95.2753 659.35 92.2167 658.772 89.282C658.234 86.3473 657.263 83.7227 655.858 81.408C654.494 79.052 652.634 77.192 650.278 75.828C647.963 74.464 645.028 73.782 641.474 73.782C638.704 73.782 636.183 74.2573 633.91 75.208C631.678 76.1173 629.756 77.5227 628.144 79.424C626.532 81.3253 625.271 83.7227 624.362 86.616C623.494 89.468 623.06 92.8367 623.06 96.722L615.806 94.49C615.806 88.0007 616.963 82.4413 619.278 77.812C621.634 73.1413 624.92 69.566 629.136 67.086C633.393 64.5647 638.394 63.304 644.14 63.304C648.48 63.304 652.179 63.986 655.238 65.35C658.296 66.714 660.838 68.5327 662.864 70.806C664.889 73.038 666.48 75.5593 667.638 78.37C668.795 81.1393 669.601 83.9707 670.056 86.864C670.552 89.716 670.8 92.4233 670.8 94.986V132H659.64ZM611.9 132V65.04H621.82V82.958H623.06V132H611.9ZM684.439 132V42.72H711.967C712.876 42.72 714.467 42.7407 716.741 42.782C719.014 42.8233 721.184 42.9887 723.251 43.278C730.153 44.1873 735.919 46.7087 740.549 50.842C745.219 54.934 748.733 60.142 751.089 66.466C753.445 72.79 754.623 79.7547 754.623 87.36C754.623 94.9653 753.445 101.93 751.089 108.254C748.733 114.578 745.219 119.807 740.549 123.94C735.919 128.032 730.153 130.533 723.251 131.442C721.184 131.69 718.993 131.855 716.679 131.938C714.405 131.979 712.835 132 711.967 132H684.439ZM695.785 121.46H711.967C713.537 121.46 715.294 121.419 717.237 121.336C719.179 121.212 720.874 121.026 722.321 120.778C727.198 119.869 731.145 117.823 734.163 114.64C737.18 111.457 739.391 107.489 740.797 102.736C742.202 97.9827 742.905 92.8573 742.905 87.36C742.905 81.7387 742.181 76.5513 740.735 71.798C739.329 67.0447 737.118 63.0973 734.101 59.956C731.083 56.8147 727.157 54.81 722.321 53.942C720.874 53.6527 719.159 53.4667 717.175 53.384C715.191 53.3013 713.455 53.26 711.967 53.26H695.785V121.46ZM794.881 133.86C788.226 133.86 782.481 132.351 777.645 129.334C772.85 126.317 769.151 122.142 766.547 116.81C763.943 111.478 762.641 105.361 762.641 98.458C762.641 91.4313 763.964 85.2727 766.609 79.982C769.254 74.6913 772.995 70.5787 777.831 67.644C782.667 64.668 788.35 63.18 794.881 63.18C801.577 63.18 807.343 64.6887 812.179 67.706C817.015 70.682 820.714 74.836 823.277 80.168C825.881 85.4587 827.183 91.5553 827.183 98.458C827.183 105.443 825.881 111.602 823.277 116.934C820.673 122.225 816.953 126.379 812.117 129.396C807.281 132.372 801.536 133.86 794.881 133.86ZM794.881 123.382C801.825 123.382 806.992 121.067 810.381 116.438C813.77 111.809 815.465 105.815 815.465 98.458C815.465 90.894 813.75 84.88 810.319 80.416C806.888 75.9107 801.742 73.658 794.881 73.658C790.21 73.658 786.366 74.712 783.349 76.82C780.332 78.928 778.079 81.842 776.591 85.562C775.103 89.282 774.359 93.5807 774.359 98.458C774.359 105.981 776.095 112.015 779.567 116.562C783.039 121.109 788.144 123.382 794.881 123.382ZM828.434 161.76V151.22H832.03C835.254 151.22 837.713 150.414 839.408 148.802C841.102 147.19 841.95 144.627 841.95 141.114V65.04H852.986V144.896C852.986 150.393 851.56 154.568 848.708 157.42C845.897 160.313 841.722 161.76 836.184 161.76H828.434ZM841.95 53.198V41.79H852.986V53.198H841.95ZM896.968 133.86C890.313 133.86 884.568 132.351 879.732 129.334C874.937 126.317 871.238 122.142 868.634 116.81C866.03 111.478 864.728 105.361 864.728 98.458C864.728 91.4313 866.05 85.2727 868.696 79.982C871.341 74.6913 875.082 70.5787 879.918 67.644C884.754 64.668 890.437 63.18 896.968 63.18C903.664 63.18 909.43 64.6887 914.266 67.706C919.102 70.682 922.801 74.836 925.364 80.168C927.968 85.4587 929.27 91.5553 929.27 98.458C929.27 105.443 927.968 111.602 925.364 116.934C922.76 122.225 919.04 126.379 914.204 129.396C909.368 132.372 903.622 133.86 896.968 133.86ZM896.968 123.382C903.912 123.382 909.078 121.067 912.468 116.438C915.857 111.809 917.552 105.815 917.552 98.458C917.552 90.894 915.836 84.88 912.406 80.416C908.975 75.9107 903.829 73.658 896.968 73.658C892.297 73.658 888.453 74.712 885.436 76.82C882.418 78.928 880.166 81.842 878.678 85.562C877.19 89.282 876.446 93.5807 876.446 98.458C876.446 105.981 878.182 112.015 881.654 116.562C885.126 121.109 890.23 123.382 896.968 123.382Z" fill="white"/>
</svg>
