<svg width="308" height="51" viewBox="0 0 308 51" fill="none" xmlns="http://www.w3.org/2000/svg">
<path d="M-0.000214977 -2.39027e-05H5.31978L34.4398 42.28H34.5798L34.5798 -2.39027e-05L39.3398 -2.39027e-05L39.3398 49.98H34.0198L4.89978 7.69998H4.75979L4.75979 49.98H-0.000214977L-0.000214977 -2.39027e-05ZM73.7869 29.4C73.7402 27.72 73.4369 26.11 72.8769 24.57C72.3636 23.03 71.6169 21.6766 70.6369 20.51C69.6569 19.2966 68.4669 18.34 67.0669 17.64C65.6669 16.8933 64.0802 16.52 62.3069 16.52C60.4869 16.52 58.8769 16.8933 57.4769 17.64C56.0769 18.34 54.8869 19.2966 53.9069 20.51C52.9269 21.6766 52.1336 23.0533 51.5269 24.64C50.9669 26.18 50.5936 27.7666 50.4069 29.4H73.7869ZM50.4069 33.11C50.4069 34.6966 50.6169 36.3533 51.0369 38.08C51.5036 39.76 52.2269 41.2766 53.2069 42.63C54.1869 43.9833 55.4236 45.1033 56.9169 45.99C58.4102 46.8766 60.2069 47.32 62.3069 47.32C65.5269 47.32 68.0469 46.48 69.8669 44.8C71.6869 43.12 72.9469 40.88 73.6469 38.08H78.0569C77.1236 42.1866 75.3969 45.36 72.8769 47.6C70.4036 49.84 66.8802 50.96 62.3069 50.96C59.4602 50.96 56.9869 50.47 54.8869 49.49C52.8336 48.4633 51.1536 47.0866 49.8469 45.36C48.5402 43.5866 47.5602 41.5566 46.9069 39.27C46.3002 36.9366 45.9969 34.4866 45.9969 31.92C45.9969 29.54 46.3002 27.2066 46.9069 24.92C47.5602 22.6333 48.5402 20.6033 49.8469 18.83C51.1536 17.01 52.8336 15.5633 54.8869 14.49C56.9869 13.37 59.4602 12.81 62.3069 12.81C65.2002 12.81 67.6736 13.3933 69.7269 14.56C71.7802 15.7266 73.4369 17.2666 74.6969 19.18C76.0036 21.0466 76.9369 23.2166 77.4969 25.69C78.0569 28.1166 78.2902 30.59 78.1969 33.11H50.4069ZM83.4857 -2.39027e-05H87.8957L87.8957 49.98H83.4857L83.4857 -2.39027e-05ZM95.7056 -2.39027e-05H100.116L100.116 49.98H95.7056L95.7056 -2.39027e-05ZM107.436 24.92C107.576 22.82 108.019 21 108.766 19.46C109.512 17.92 110.516 16.66 111.776 15.68C113.082 14.7 114.599 13.9766 116.326 13.51C118.052 13.0433 119.966 12.81 122.066 12.81C123.652 12.81 125.239 12.9733 126.826 13.3C128.412 13.58 129.836 14.14 131.096 14.98C132.356 15.82 133.382 17.01 134.176 18.55C134.969 20.0433 135.366 22.0033 135.366 24.43V43.61C135.366 45.3833 136.229 46.27 137.956 46.27C138.469 46.27 138.936 46.1766 139.356 45.99V49.7C138.842 49.7933 138.376 49.8633 137.956 49.91C137.582 49.9566 137.092 49.98 136.486 49.98C135.366 49.98 134.456 49.84 133.756 49.56C133.102 49.2333 132.589 48.79 132.216 48.23C131.842 47.67 131.586 47.0166 131.446 46.27C131.352 45.4766 131.306 44.6133 131.306 43.68H131.166C130.372 44.8466 129.556 45.8966 128.716 46.83C127.922 47.7166 127.012 48.4633 125.986 49.07C125.006 49.6766 123.862 50.1433 122.556 50.47C121.296 50.7966 119.779 50.96 118.006 50.96C116.326 50.96 114.739 50.75 113.246 50.33C111.799 49.9566 110.516 49.35 109.396 48.51C108.322 47.6233 107.459 46.5266 106.806 45.22C106.199 43.8666 105.896 42.28 105.896 40.46C105.896 37.94 106.456 35.98 107.576 34.58C108.696 33.1333 110.166 32.0366 111.986 31.29C113.852 30.5433 115.929 30.03 118.216 29.75C120.549 29.4233 122.906 29.12 125.286 28.84C126.219 28.7466 127.036 28.63 127.736 28.49C128.436 28.35 129.019 28.1166 129.486 27.79C129.952 27.4166 130.302 26.9266 130.536 26.32C130.816 25.7133 130.956 24.92 130.956 23.94C130.956 22.4466 130.699 21.2333 130.186 20.3C129.719 19.32 129.042 18.55 128.156 17.99C127.316 17.43 126.312 17.0566 125.146 16.87C124.026 16.6366 122.812 16.52 121.506 16.52C118.706 16.52 116.419 17.1966 114.646 18.55C112.872 19.8566 111.939 21.98 111.846 24.92H107.436ZM130.956 30.24H130.816C130.536 30.7533 129.999 31.1266 129.206 31.36C128.412 31.5933 127.712 31.7566 127.106 31.85C125.239 32.1766 123.302 32.48 121.296 32.76C119.336 32.9933 117.539 33.3666 115.906 33.88C114.272 34.3933 112.919 35.14 111.846 36.12C110.819 37.0533 110.306 38.4066 110.306 40.18C110.306 41.3 110.516 42.3033 110.936 43.19C111.402 44.03 112.009 44.7766 112.756 45.43C113.502 46.0366 114.366 46.5033 115.346 46.83C116.326 47.1566 117.329 47.32 118.356 47.32C120.036 47.32 121.646 47.0633 123.186 46.55C124.726 46.0366 126.056 45.29 127.176 44.31C128.342 43.33 129.252 42.14 129.906 40.74C130.606 39.34 130.956 37.7533 130.956 35.98V30.24ZM144.574 -2.39027e-05L165.294 -2.39027e-05C169.121 -2.39027e-05 172.434 0.653309 175.234 1.95998C178.034 3.26664 180.321 5.06331 182.094 7.34998C183.868 9.58998 185.174 12.2266 186.014 15.26C186.901 18.2933 187.344 21.5366 187.344 24.99C187.344 28.4433 186.901 31.6866 186.014 34.72C185.174 37.7533 183.868 40.4133 182.094 42.7C180.321 44.94 178.034 46.7133 175.234 48.02C172.434 49.3266 169.121 49.98 165.294 49.98H144.574V-2.39027e-05ZM153.324 42.84H161.934C165.341 42.84 168.118 42.3966 170.264 41.51C172.458 40.5766 174.161 39.3166 175.374 37.73C176.634 36.0966 177.474 34.2066 177.894 32.06C178.361 29.8666 178.594 27.51 178.594 24.99C178.594 22.47 178.361 20.1366 177.894 17.99C177.474 15.7966 176.634 13.9066 175.374 12.32C174.161 10.6866 172.458 9.42664 170.264 8.53998C168.118 7.60664 165.341 7.13998 161.934 7.13998H153.324V42.84ZM218.122 28.7C218.029 27.44 217.749 26.2266 217.282 25.06C216.862 23.8933 216.255 22.89 215.462 22.05C214.715 21.1633 213.782 20.4633 212.662 19.95C211.589 19.39 210.375 19.11 209.022 19.11C207.622 19.11 206.339 19.3666 205.172 19.88C204.052 20.3466 203.072 21.0233 202.232 21.91C201.439 22.75 200.785 23.7533 200.272 24.92C199.805 26.0866 199.549 27.3466 199.502 28.7H218.122ZM199.502 33.95C199.502 35.35 199.689 36.7033 200.062 38.01C200.482 39.3166 201.089 40.46 201.882 41.44C202.675 42.42 203.679 43.2133 204.892 43.82C206.105 44.38 207.552 44.66 209.232 44.66C211.565 44.66 213.432 44.17 214.832 43.19C216.279 42.1633 217.352 40.6466 218.052 38.64H225.612C225.192 40.6 224.469 42.35 223.442 43.89C222.415 45.43 221.179 46.7366 219.732 47.81C218.285 48.8366 216.652 49.6066 214.832 50.12C213.059 50.68 211.192 50.96 209.232 50.96C206.385 50.96 203.865 50.4933 201.672 49.56C199.479 48.6266 197.612 47.32 196.072 45.64C194.579 43.96 193.435 41.9533 192.642 39.62C191.895 37.2866 191.522 34.72 191.522 31.92C191.522 29.3533 191.919 26.9266 192.712 24.64C193.552 22.3066 194.719 20.2766 196.212 18.55C197.752 16.7766 199.595 15.3766 201.742 14.35C203.889 13.3233 206.315 12.81 209.022 12.81C211.869 12.81 214.412 13.4166 216.652 14.63C218.939 15.7966 220.829 17.36 222.322 19.32C223.815 21.28 224.889 23.5433 225.542 26.11C226.242 28.63 226.429 31.2433 226.102 33.95H199.502ZM231.468 13.79H238.958V20.79H239.098C239.332 19.81 239.775 18.8533 240.428 17.92C241.128 16.9866 241.945 16.1466 242.878 15.4C243.858 14.6066 244.932 13.9766 246.098 13.51C247.265 13.0433 248.455 12.81 249.668 12.81C250.602 12.81 251.232 12.8333 251.558 12.88C251.932 12.9266 252.305 12.9733 252.678 13.02V20.72C252.118 20.6266 251.535 20.5566 250.928 20.51C250.368 20.4166 249.808 20.37 249.248 20.37C247.895 20.37 246.612 20.65 245.398 21.21C244.232 21.7233 243.205 22.5166 242.318 23.59C241.432 24.6166 240.732 25.9 240.218 27.44C239.705 28.98 239.448 30.7533 239.448 32.76V49.98H231.468V13.79ZM255.378 13.79H262.938V18.83H263.148C263.754 17.9433 264.408 17.1266 265.108 16.38C265.808 15.6333 266.578 15.0033 267.418 14.49C268.304 13.9766 269.308 13.58 270.428 13.3C271.548 12.9733 272.831 12.81 274.278 12.81C276.471 12.81 278.501 13.3 280.368 14.28C282.281 15.26 283.634 16.7766 284.428 18.83C285.781 16.9633 287.344 15.4933 289.118 14.42C290.891 13.3466 293.108 12.81 295.768 12.81C299.594 12.81 302.558 13.7433 304.658 15.61C306.804 17.4766 307.878 20.6033 307.878 24.99V49.98H299.898V28.84C299.898 27.3933 299.851 26.0866 299.758 24.92C299.664 23.7066 299.384 22.68 298.918 21.84C298.498 20.9533 297.844 20.2766 296.958 19.81C296.071 19.3433 294.858 19.11 293.318 19.11C290.611 19.11 288.651 19.95 287.438 21.63C286.224 23.31 285.618 25.69 285.618 28.77V49.98L277.638 49.98V26.74C277.638 24.22 277.171 22.33 276.238 21.07C275.351 19.7633 273.694 19.11 271.268 19.11C270.241 19.11 269.238 19.32 268.258 19.74C267.324 20.16 266.484 20.7666 265.738 21.56C265.038 22.3533 264.454 23.3333 263.988 24.5C263.568 25.6666 263.358 26.9966 263.358 28.49V49.98H255.378V13.79Z" fill="white"/>
</svg>
