<svg width="1464" height="582" viewBox="0 0 1464 582" fill="none" xmlns="http://www.w3.org/2000/svg">
<rect width="1464" height="582" fill="#7C86FF"/>
<path d="M356.573 195.047L278.84 195.015C257.941 195.007 241.007 211.941 241.015 232.84L241.046 308.098C241.054 328.996 258.003 345.945 278.901 345.953L356.634 345.985C377.532 345.993 394.467 329.059 394.458 308.16L394.428 232.902C394.419 212.004 377.471 195.055 356.573 195.047Z" fill="black"/>
<path fill-rule="evenodd" clip-rule="evenodd" d="M318.118 297.838C317.226 297.855 309.924 298.042 304.369 299.772C298.446 301.618 294.015 301.403 291.716 301.499C289.416 301.597 278.975 301.199 272.159 296.243C265.343 291.289 260.45 281.646 260.675 271.238C260.9 260.832 266.668 250.687 281.977 243.984C293.155 239.091 306.113 237.467 318.183 237.472C330.252 237.477 343.211 239.111 354.393 244.013C369.708 250.728 375.485 260.878 375.719 271.285C375.952 281.693 371.068 291.332 364.253 296.281C357.441 301.231 347.002 301.62 344.701 301.52C342.401 301.423 337.973 301.634 332.048 299.783C326.121 297.934 318.208 297.838 318.208 297.838L318.118 297.838Z" fill="white"/>
<path d="M292.804 261.201C298.196 260.945 302.721 263.151 306.461 267.71C309.129 270.962 309.414 275.13 307.306 278.083C305.172 281.075 301.874 281.17 298.906 278.326C294.34 273.956 291.363 273.936 286.661 278.24C283.395 281.232 279.922 281.14 277.998 277.73C275.851 273.927 276.564 270.442 279.262 267.425C283.141 263.086 287.68 260.961 292.804 261.201Z" fill="black"/>
<path d="M342.26 260.701C347.652 260.445 352.177 262.651 355.917 267.21C358.585 270.462 358.87 274.63 356.762 277.583C354.628 280.575 351.33 280.67 348.362 277.826C343.796 273.456 340.819 273.436 336.117 277.74C332.851 280.732 329.378 280.64 327.454 277.23C325.307 273.427 326.02 269.942 328.718 266.925C332.597 262.586 337.136 260.461 342.26 260.701Z" fill="black"/>
<path d="M453.154 318V228.72H488.432C489.3 228.72 490.333 228.761 491.532 228.844C492.73 228.885 493.888 229.009 495.004 229.216C499.84 229.96 503.89 231.613 507.156 234.176C510.462 236.739 512.942 239.983 514.596 243.91C516.249 247.795 517.076 252.115 517.076 256.868C517.076 263.771 515.278 269.764 511.682 274.848C508.086 279.891 502.816 283.053 495.872 284.334L491.656 285.016H464.19V318H453.154ZM506.288 318L488.68 281.668L499.592 278.32L518.936 318H506.288ZM464.19 274.538H488.06C488.845 274.538 489.734 274.497 490.726 274.414C491.759 274.331 492.73 274.187 493.64 273.98C496.492 273.319 498.806 272.12 500.584 270.384C502.402 268.607 503.725 266.54 504.552 264.184C505.378 261.787 505.792 259.348 505.792 256.868C505.792 254.388 505.378 251.97 504.552 249.614C503.725 247.217 502.402 245.129 500.584 243.352C498.806 241.575 496.492 240.376 493.64 239.756C492.73 239.508 491.759 239.363 490.726 239.322C489.734 239.239 488.845 239.198 488.06 239.198H464.19V274.538ZM559.127 319.86C552.555 319.86 546.81 318.413 541.891 315.52C537.014 312.585 533.211 308.514 530.483 303.306C527.755 298.057 526.391 291.939 526.391 284.954C526.391 277.638 527.734 271.314 530.421 265.982C533.108 260.609 536.848 256.475 541.643 253.582C546.479 250.647 552.142 249.18 558.631 249.18C565.368 249.18 571.093 250.73 575.805 253.83C580.558 256.93 584.113 261.353 586.469 267.098C588.866 272.843 589.9 279.684 589.569 287.62H578.409V283.652C578.285 275.427 576.611 269.289 573.387 265.238C570.163 261.146 565.368 259.1 559.003 259.1C552.183 259.1 546.996 261.291 543.441 265.672C539.886 270.053 538.109 276.336 538.109 284.52C538.109 292.415 539.886 298.532 543.441 302.872C546.996 307.212 552.059 309.382 558.631 309.382C563.054 309.382 566.898 308.369 570.163 306.344C573.428 304.319 575.991 301.405 577.851 297.602L588.453 301.26C585.849 307.171 581.922 311.759 576.673 315.024C571.465 318.248 565.616 319.86 559.127 319.86ZM534.389 287.62V278.754H583.865V287.62H534.389ZM616.575 318L592.271 251.04H603.431L622.217 303.926L640.941 251.04H652.163L627.859 318H616.575ZM662.137 239.198V227.79H673.173V239.198H662.137ZM662.137 318V251.04H673.173V318H662.137ZM714.592 319.798C706.615 319.798 700.063 318.062 694.938 314.59C689.854 311.077 686.733 306.179 685.576 299.896L696.86 298.098C697.769 301.735 699.857 304.629 703.122 306.778C706.387 308.886 710.438 309.94 715.274 309.94C719.862 309.94 723.458 308.989 726.062 307.088C728.666 305.187 729.968 302.603 729.968 299.338C729.968 297.437 729.534 295.907 728.666 294.75C727.798 293.551 726 292.435 723.272 291.402C720.585 290.369 716.514 289.129 711.058 287.682C705.147 286.111 700.497 284.479 697.108 282.784C693.719 281.089 691.301 279.126 689.854 276.894C688.407 274.662 687.684 271.955 687.684 268.772C687.684 264.845 688.759 261.415 690.908 258.48C693.057 255.504 696.054 253.21 699.898 251.598C703.783 249.986 708.289 249.18 713.414 249.18C718.498 249.18 723.045 249.986 727.054 251.598C731.063 253.21 734.287 255.504 736.726 258.48C739.206 261.415 740.673 264.845 741.128 268.772L729.844 270.818C729.307 267.222 727.571 264.391 724.636 262.324C721.743 260.257 718.002 259.162 713.414 259.038C709.074 258.873 705.54 259.637 702.812 261.332C700.125 263.027 698.782 265.321 698.782 268.214C698.782 269.826 699.278 271.211 700.27 272.368C701.303 273.525 703.184 274.621 705.912 275.654C708.681 276.687 712.691 277.865 717.94 279.188C723.851 280.676 728.501 282.309 731.89 284.086C735.321 285.822 737.759 287.889 739.206 290.286C740.653 292.642 741.376 295.556 741.376 299.028C741.376 305.476 738.999 310.56 734.246 314.28C729.493 317.959 722.941 319.798 714.592 319.798ZM753.81 239.198V227.79H764.846V239.198H753.81ZM753.81 318V251.04H764.846V318H753.81ZM809.489 319.86C802.834 319.86 797.089 318.351 792.253 315.334C787.458 312.317 783.759 308.142 781.155 302.81C778.551 297.478 777.249 291.361 777.249 284.458C777.249 277.431 778.572 271.273 781.217 265.982C783.862 260.691 787.603 256.579 792.439 253.644C797.275 250.668 802.958 249.18 809.489 249.18C816.185 249.18 821.951 250.689 826.787 253.706C831.623 256.682 835.322 260.836 837.885 266.168C840.489 271.459 841.791 277.555 841.791 284.458C841.791 291.443 840.489 297.602 837.885 302.934C835.281 308.225 831.561 312.379 826.725 315.396C821.889 318.372 816.144 319.86 809.489 319.86ZM809.489 309.382C816.433 309.382 821.6 307.067 824.989 302.438C828.378 297.809 830.073 291.815 830.073 284.458C830.073 276.894 828.358 270.88 824.927 266.416C821.496 261.911 816.35 259.658 809.489 259.658C804.818 259.658 800.974 260.712 797.957 262.82C794.94 264.928 792.687 267.842 791.199 271.562C789.711 275.282 788.967 279.581 788.967 284.458C788.967 291.981 790.703 298.015 794.175 302.562C797.647 307.109 802.752 309.382 809.489 309.382ZM900.64 318V284.458C900.64 281.275 900.35 278.217 899.772 275.282C899.234 272.347 898.263 269.723 896.858 267.408C895.494 265.052 893.634 263.192 891.278 261.828C888.963 260.464 886.028 259.782 882.474 259.782C879.704 259.782 877.183 260.257 874.91 261.208C872.678 262.117 870.756 263.523 869.144 265.424C867.532 267.325 866.271 269.723 865.362 272.616C864.494 275.468 864.06 278.837 864.06 282.722L856.806 280.49C856.806 274.001 857.963 268.441 860.278 263.812C862.634 259.141 865.92 255.566 870.136 253.086C874.393 250.565 879.394 249.304 885.14 249.304C889.48 249.304 893.179 249.986 896.238 251.35C899.296 252.714 901.838 254.533 903.864 256.806C905.889 259.038 907.48 261.559 908.638 264.37C909.795 267.139 910.601 269.971 911.056 272.864C911.552 275.716 911.8 278.423 911.8 280.986V318H900.64ZM852.9 318V251.04H862.82V268.958H864.06V318H852.9ZM925.439 318V228.72H952.967C953.876 228.72 955.467 228.741 957.741 228.782C960.014 228.823 962.184 228.989 964.251 229.278C971.153 230.187 976.919 232.709 981.549 236.842C986.219 240.934 989.733 246.142 992.089 252.466C994.445 258.79 995.623 265.755 995.623 273.36C995.623 280.965 994.445 287.93 992.089 294.254C989.733 300.578 986.219 305.807 981.549 309.94C976.919 314.032 971.153 316.533 964.251 317.442C962.184 317.69 959.993 317.855 957.679 317.938C955.405 317.979 953.835 318 952.967 318H925.439ZM936.785 307.46H952.967C954.537 307.46 956.294 307.419 958.237 307.336C960.179 307.212 961.874 307.026 963.321 306.778C968.198 305.869 972.145 303.823 975.163 300.64C978.18 297.457 980.391 293.489 981.797 288.736C983.202 283.983 983.905 278.857 983.905 273.36C983.905 267.739 983.181 262.551 981.735 257.798C980.329 253.045 978.118 249.097 975.101 245.956C972.083 242.815 968.157 240.81 963.321 239.942C961.874 239.653 960.159 239.467 958.175 239.384C956.191 239.301 954.455 239.26 952.967 239.26H936.785V307.46ZM1035.88 319.86C1029.23 319.86 1023.48 318.351 1018.64 315.334C1013.85 312.317 1010.15 308.142 1007.55 302.81C1004.94 297.478 1003.64 291.361 1003.64 284.458C1003.64 277.431 1004.96 271.273 1007.61 265.982C1010.25 260.691 1013.99 256.579 1018.83 253.644C1023.67 250.668 1029.35 249.18 1035.88 249.18C1042.58 249.18 1048.34 250.689 1053.18 253.706C1058.01 256.682 1061.71 260.836 1064.28 266.168C1066.88 271.459 1068.18 277.555 1068.18 284.458C1068.18 291.443 1066.88 297.602 1064.28 302.934C1061.67 308.225 1057.95 312.379 1053.12 315.396C1048.28 318.372 1042.54 319.86 1035.88 319.86ZM1035.88 309.382C1042.82 309.382 1047.99 307.067 1051.38 302.438C1054.77 297.809 1056.46 291.815 1056.46 284.458C1056.46 276.894 1054.75 270.88 1051.32 266.416C1047.89 261.911 1042.74 259.658 1035.88 259.658C1031.21 259.658 1027.37 260.712 1024.35 262.82C1021.33 264.928 1019.08 267.842 1017.59 271.562C1016.1 275.282 1015.36 279.581 1015.36 284.458C1015.36 291.981 1017.09 298.015 1020.57 302.562C1024.04 307.109 1029.14 309.382 1035.88 309.382ZM1069.43 347.76V337.22H1073.03C1076.25 337.22 1078.71 336.414 1080.41 334.802C1082.1 333.19 1082.95 330.627 1082.95 327.114V251.04H1093.99V330.896C1093.99 336.393 1092.56 340.568 1089.71 343.42C1086.9 346.313 1082.72 347.76 1077.18 347.76H1069.43ZM1082.95 239.198V227.79H1093.99V239.198H1082.95ZM1137.97 319.86C1131.31 319.86 1125.57 318.351 1120.73 315.334C1115.94 312.317 1112.24 308.142 1109.63 302.81C1107.03 297.478 1105.73 291.361 1105.73 284.458C1105.73 277.431 1107.05 271.273 1109.7 265.982C1112.34 260.691 1116.08 256.579 1120.92 253.644C1125.75 250.668 1131.44 249.18 1137.97 249.18C1144.66 249.18 1150.43 250.689 1155.27 253.706C1160.1 256.682 1163.8 260.836 1166.36 266.168C1168.97 271.459 1170.27 277.555 1170.27 284.458C1170.27 291.443 1168.97 297.602 1166.36 302.934C1163.76 308.225 1160.04 312.379 1155.2 315.396C1150.37 318.372 1144.62 319.86 1137.97 319.86ZM1137.97 309.382C1144.91 309.382 1150.08 307.067 1153.47 302.438C1156.86 297.809 1158.55 291.815 1158.55 284.458C1158.55 276.894 1156.84 270.88 1153.41 266.416C1149.98 261.911 1144.83 259.658 1137.97 259.658C1133.3 259.658 1129.45 260.712 1126.44 262.82C1123.42 264.928 1121.17 267.842 1119.68 271.562C1118.19 275.282 1117.45 279.581 1117.45 284.458C1117.45 291.981 1119.18 298.015 1122.65 302.562C1126.13 307.109 1131.23 309.382 1137.97 309.382Z" fill="white"/>
</svg>
