<svg width="75" height="63" viewBox="0 0 75 63" fill="none" xmlns="http://www.w3.org/2000/svg">
<g filter="url(#filter0_d_3473_1641)">
<path d="M14 44.9707C16.2091 44.9707 18 46.7616 18 48.9707C18 51.1798 16.2091 52.9707 14 52.9707C11.7909 52.9707 10 51.1798 10 48.9707C10 46.7616 11.7909 44.9707 14 44.9707ZM38.9844 10C45.9386 10 51.617 13.9904 51.9668 19.0088C59.1992 19.1876 64.9844 23.3669 64.9844 28.5C64.9844 30.3445 64.2351 32.0642 62.9424 33.5215C63.61 34.5733 63.9844 35.7533 63.9844 37C63.9844 41.4183 59.2834 45 53.4844 45C52.4064 45 51.3666 44.8754 50.3877 44.6455C48.6071 47.2644 45.5103 49 41.9844 49C39.0498 49 36.4104 47.7993 34.5811 45.8867C32.9839 46.5891 31.058 47 28.9844 47C23.4615 47 18.9844 44.0899 18.9844 40.5C18.9844 39.1377 19.6295 37.8737 20.7314 36.8291C16.7102 35.2137 13.9844 32.0902 13.9844 28.5C13.9844 23.4956 19.2797 19.3973 25.999 19.0293C26.3347 14.0012 32.0206 10 38.9844 10Z" fill="white"/>
</g>
<defs>
<filter id="filter0_d_3473_1641" x="0" y="0" width="74.9844" height="62.9707" filterUnits="userSpaceOnUse" color-interpolation-filters="sRGB">
<feFlood flood-opacity="0" result="BackgroundImageFix"/>
<feColorMatrix in="SourceAlpha" type="matrix" values="0 0 0 0 0 0 0 0 0 0 0 0 0 0 0 0 0 0 127 0" result="hardAlpha"/>
<feOffset/>
<feGaussianBlur stdDeviation="5"/>
<feComposite in2="hardAlpha" operator="out"/>
<feColorMatrix type="matrix" values="0 0 0 0 0 0 0 0 0 0 0 0 0 0 0 0 0 0 0.25 0"/>
<feBlend mode="normal" in2="BackgroundImageFix" result="effect1_dropShadow_3473_1641"/>
<feBlend mode="normal" in="SourceGraphic" in2="effect1_dropShadow_3473_1641" result="shape"/>
</filter>
</defs>
</svg>
