<svg width="1167" height="741" viewBox="0 0 1167 741" fill="none" xmlns="http://www.w3.org/2000/svg">
<rect width="1167" height="740.888" rx="12" fill="#F5F5F5"/>
<path d="M747.186 170.281C747.443 170.024 747.443 169.607 747.186 169.35L742.997 165.162C742.74 164.905 742.324 164.905 742.067 165.162C741.81 165.419 741.81 165.835 742.067 166.092L745.79 169.815L742.067 173.538C741.81 173.795 741.81 174.212 742.067 174.469C742.324 174.726 742.74 174.726 742.997 174.469L747.186 170.281ZM695.385 169.815V170.474H746.72V169.815V169.157H695.385V169.815ZM686.171 179.029H686.829C686.829 174.304 690.66 170.474 695.385 170.474V169.815V169.157C689.933 169.157 685.513 173.577 685.513 179.029H686.171Z" fill="#666666"/>
<path d="M753.767 432.607C754.024 432.864 754.024 433.281 753.767 433.538L749.579 437.726C749.322 437.983 748.905 437.983 748.648 437.726C748.391 437.469 748.391 437.052 748.648 436.795L752.371 433.072L748.648 429.349C748.391 429.092 748.391 428.675 748.648 428.418C748.905 428.161 749.322 428.161 749.579 428.418L753.767 432.607ZM703.283 433.072V432.414H753.302V433.072V433.73H703.283V433.072ZM692.752 422.542H693.411C693.411 427.994 697.831 432.414 703.283 432.414V433.072V433.73C697.104 433.73 692.094 428.721 692.094 422.542H692.752Z" fill="#666666"/>
<path d="M529.77 192.574C530.027 192.317 530.027 191.9 529.77 191.643L525.582 187.455C525.325 187.198 524.908 187.198 524.651 187.455C524.394 187.712 524.394 188.128 524.651 188.385L528.374 192.108L524.651 195.831C524.394 196.088 524.394 196.505 524.651 196.762C524.908 197.019 525.325 197.019 525.582 196.762L529.77 192.574ZM362.282 301.669V302.327H416.194V301.669V301.011H362.282V301.669ZM426.724 291.139H427.382V202.639H426.724H426.066V291.139H426.724ZM437.254 192.108V192.767H529.305V192.108V191.45H437.254V192.108ZM426.724 202.639H427.382C427.382 197.186 431.802 192.767 437.254 192.767V192.108V191.45C431.075 191.45 426.066 196.46 426.066 202.639H426.724ZM416.194 301.669V302.327C422.373 302.327 427.382 297.318 427.382 291.139H426.724H426.066C426.066 296.591 421.646 301.011 416.194 301.011V301.669Z" fill="#A3B3FF"/>
<path d="M529.77 412.295C530.027 412.552 530.027 412.969 529.77 413.226L525.582 417.415C525.325 417.672 524.908 417.672 524.651 417.415C524.394 417.158 524.394 416.741 524.651 416.484L528.374 412.761L524.651 409.038C524.394 408.781 524.394 408.364 524.651 408.107C524.908 407.85 525.325 407.85 525.582 408.107L529.77 412.295ZM362.282 301.668V301.01H416.194V301.668V302.326H362.282V301.668ZM426.724 312.198H427.382V402.23H426.724H426.066V312.198H426.724ZM437.254 412.761V412.103H529.305V412.761V413.419H437.254V412.761ZM426.724 402.23H427.382C427.382 407.683 431.802 412.103 437.254 412.103V412.761V413.419C431.075 413.419 426.066 408.41 426.066 402.23H426.724ZM416.194 301.668V301.01C422.373 301.01 427.382 306.019 427.382 312.198H426.724H426.066C426.066 306.746 421.646 302.326 416.194 302.326V301.668Z" fill="#666666"/>
<circle cx="340.644" cy="302.102" r="15.1374" fill="#7C86FF"/>
<path d="M528.023 301.91C528.28 301.653 528.28 301.236 528.023 300.979L523.835 296.791C523.578 296.534 523.161 296.534 522.904 296.791C522.647 297.048 522.647 297.464 522.904 297.721L526.627 301.444L522.904 305.167C522.647 305.424 522.647 305.841 522.904 306.098C523.161 306.355 523.578 306.355 523.835 306.098L528.023 301.91ZM362.282 301.444V302.102H527.558V301.444V300.786H362.282V301.444Z" fill="#666666"/>
<rect x="540.062" y="175.08" width="80.2938" height="36.8562" rx="5.26517" fill="#7C86FF"/>
<rect x="540.72" y="281.042" width="78.9775" height="35.5399" rx="4.60702" stroke="#666666" stroke-width="1.31629"/>
<rect x="761.199" y="104" width="80.2938" height="36.8562" rx="5.26517" fill="#7C86FF"/>
<rect x="761.857" y="152.045" width="78.9775" height="35.5399" rx="4.60702" stroke="#666666" stroke-width="1.31629"/>
<rect x="761.857" y="259.98" width="78.9775" height="35.5399" rx="4.60702" stroke="#666666" stroke-width="1.31629"/>
<rect x="761.857" y="307.367" width="78.9775" height="35.5399" rx="4.60702" stroke="#666666" stroke-width="1.31629"/>
<rect x="761.857" y="415.303" width="78.9775" height="35.5399" rx="4.60702" stroke="#666666" stroke-width="1.31629"/>
<rect x="761.857" y="462.689" width="78.9775" height="35.5399" rx="4.60702" stroke="#666666" stroke-width="1.31629"/>
<rect x="540.72" y="395.559" width="78.9775" height="35.5399" rx="4.60702" stroke="#666666" stroke-width="1.31629"/>
<path d="M747.186 122.893C747.443 122.636 747.443 122.219 747.186 121.962L742.997 117.774C742.74 117.517 742.323 117.517 742.066 117.774C741.809 118.031 741.809 118.448 742.066 118.705L745.789 122.428L742.066 126.151C741.809 126.408 741.809 126.825 742.066 127.082C742.323 127.339 742.74 127.339 742.997 127.082L747.186 122.893ZM628.254 192.191V192.849H675.266V192.191V191.533H628.254V192.191ZM685.796 181.661H686.454V132.958H685.796H685.138V181.661H685.796ZM696.326 122.428V123.086H724.439V122.428V121.77H696.326V122.428ZM724.439 122.428V123.086H746.72V122.428V121.77H724.439V122.428ZM685.796 132.958H686.454C686.454 127.506 690.874 123.086 696.326 123.086V122.428V121.77C690.147 121.77 685.138 126.779 685.138 132.958H685.796ZM675.266 192.191V192.849C681.445 192.849 686.454 187.84 686.454 181.661H685.796H685.138C685.138 187.113 680.718 191.533 675.266 191.533V192.191Z" fill="#A3B3FF"/>
<path d="M753.767 482.626C754.024 482.883 754.024 483.3 753.767 483.557L749.578 487.746C749.321 488.003 748.905 488.003 748.648 487.746C748.391 487.489 748.391 487.072 748.648 486.815L752.371 483.092L748.648 479.369C748.391 479.112 748.391 478.695 748.648 478.438C748.905 478.181 749.321 478.181 749.578 478.438L753.767 482.626ZM634.835 402.798V402.14H681.847V402.798V403.456H634.835V402.798ZM692.377 413.328H693.035V472.561H692.377H691.719V413.328H692.377ZM702.908 483.092V482.434H731.021V483.092V483.75H702.908V483.092ZM731.021 483.092V482.434H753.302V483.092V483.75H731.021V483.092ZM692.377 472.561H693.035C693.035 478.014 697.455 482.434 702.908 482.434V483.092V483.75C696.728 483.75 691.719 478.741 691.719 472.561H692.377ZM681.847 402.798V402.14C688.026 402.14 693.035 407.149 693.035 413.328H692.377H691.719C691.719 407.876 687.299 403.456 681.847 403.456V402.798Z" fill="#666666"/>
<path d="M748.502 276.9C748.759 276.643 748.759 276.226 748.502 275.969L744.314 271.781C744.057 271.524 743.64 271.524 743.383 271.781C743.126 272.038 743.126 272.455 743.383 272.712L747.106 276.435L743.383 280.158C743.126 280.415 743.126 280.831 743.383 281.088C743.64 281.345 744.057 281.345 744.314 281.088L748.502 276.9ZM688.461 292.23H689.119V286.965H688.461H687.803V292.23H688.461ZM698.991 276.435V277.093H748.037V276.435V275.776H698.991V276.435ZM629.57 302.76V303.419H659.016V302.76V302.102H629.57V302.76ZM659.016 302.76V303.419H677.931V302.76V302.102H659.016V302.76ZM688.461 286.965H689.119C689.119 281.513 693.539 277.093 698.991 277.093V276.435V275.776C692.812 275.776 687.803 280.786 687.803 286.965H688.461ZM688.461 292.23H687.803C687.803 297.682 683.383 302.102 677.931 302.102V302.76V303.419C684.11 303.419 689.119 298.409 689.119 292.23H688.461Z" fill="#666666"/>
<path d="M748.502 325.602C748.759 325.345 748.759 324.928 748.502 324.671L744.313 320.483C744.056 320.226 743.64 320.226 743.383 320.483C743.126 320.74 743.126 321.157 743.383 321.414L747.106 325.137L743.383 328.86C743.126 329.117 743.126 329.534 743.383 329.791C743.64 330.048 744.056 330.048 744.313 329.791L748.502 325.602ZM675.64 302.76V303.418H680.247V302.76V302.102H675.64V302.76ZM690.778 313.29H690.12V314.606H690.778H691.436V313.29H690.778ZM701.308 325.137V325.795H748.036V325.137V324.479H701.308V325.137ZM690.778 314.606H690.12C690.12 320.786 695.129 325.795 701.308 325.795V325.137V324.479C695.856 324.479 691.436 320.059 691.436 314.606H690.778ZM680.247 302.76V303.418C685.7 303.418 690.12 307.838 690.12 313.29H690.778H691.436C691.436 307.111 686.427 302.102 680.247 302.102V302.76Z" fill="#666666"/>
<path d="M190.171 627.888H186.848L196.461 601.706H199.734L209.348 627.888H206.024L198.2 605.848H197.995L190.171 627.888ZM191.399 617.66H204.796V620.473H191.399V617.66ZM215.314 616.075V627.888H212.297V608.251H215.211V611.32H215.467C215.927 610.322 216.626 609.521 217.564 608.916C218.501 608.302 219.711 607.996 221.194 607.996C222.524 607.996 223.687 608.268 224.684 608.814C225.682 609.351 226.457 610.169 227.011 611.268C227.565 612.359 227.842 613.74 227.842 615.41V627.888H224.825V615.615C224.825 614.072 224.424 612.871 223.623 612.01C222.822 611.141 221.723 610.706 220.325 610.706C219.362 610.706 218.501 610.915 217.743 611.332C216.993 611.75 216.4 612.359 215.966 613.16C215.531 613.962 215.314 614.933 215.314 616.075ZM238.414 628.348C237.169 628.348 236.04 628.114 235.026 627.645C234.012 627.168 233.206 626.481 232.61 625.587C232.013 624.683 231.715 623.592 231.715 622.314C231.715 621.189 231.936 620.277 232.38 619.578C232.823 618.871 233.415 618.317 234.157 617.916C234.898 617.516 235.716 617.217 236.611 617.021C237.514 616.817 238.422 616.655 239.334 616.535C240.527 616.382 241.495 616.267 242.236 616.19C242.986 616.105 243.532 615.964 243.872 615.768C244.222 615.572 244.397 615.231 244.397 614.746V614.643C244.397 613.382 244.051 612.402 243.361 611.703C242.679 611.004 241.644 610.655 240.255 610.655C238.814 610.655 237.685 610.97 236.867 611.601C236.049 612.231 235.473 612.905 235.141 613.621L232.277 612.598C232.789 611.405 233.47 610.476 234.323 609.811C235.183 609.138 236.121 608.669 237.135 608.405C238.158 608.132 239.164 607.996 240.152 607.996C240.783 607.996 241.507 608.072 242.326 608.226C243.152 608.371 243.949 608.673 244.716 609.133C245.492 609.594 246.135 610.288 246.647 611.217C247.158 612.146 247.414 613.391 247.414 614.95V627.888H244.397V625.229H244.243C244.039 625.655 243.698 626.111 243.22 626.597C242.743 627.082 242.108 627.496 241.316 627.837C240.523 628.177 239.556 628.348 238.414 628.348ZM238.874 625.638C240.067 625.638 241.073 625.403 241.891 624.935C242.718 624.466 243.34 623.861 243.757 623.119C244.183 622.378 244.397 621.598 244.397 620.78V618.018C244.269 618.172 243.987 618.312 243.553 618.44C243.127 618.56 242.632 618.666 242.07 618.76C241.516 618.845 240.975 618.922 240.446 618.99C239.926 619.05 239.505 619.101 239.181 619.143C238.397 619.246 237.664 619.412 236.982 619.642C236.308 619.864 235.763 620.2 235.345 620.652C234.936 621.095 234.732 621.7 234.732 622.467C234.732 623.516 235.12 624.308 235.895 624.845C236.679 625.373 237.672 625.638 238.874 625.638ZM255.217 601.706V627.888H252.2V601.706H255.217ZM261.967 635.251C261.455 635.251 260.999 635.209 260.599 635.123C260.198 635.047 259.921 634.97 259.768 634.893L260.535 632.234C261.268 632.422 261.915 632.49 262.478 632.439C263.04 632.388 263.539 632.136 263.974 631.685C264.417 631.241 264.822 630.521 265.188 629.524L265.751 627.99L258.489 608.251H261.762L267.182 623.899H267.387L272.807 608.251H276.08L267.745 630.751C267.37 631.766 266.905 632.605 266.351 633.27C265.797 633.943 265.154 634.442 264.421 634.766C263.697 635.089 262.878 635.251 261.967 635.251ZM293.251 612.649L290.541 613.416C290.371 612.964 290.119 612.525 289.787 612.099C289.463 611.665 289.02 611.307 288.457 611.025C287.895 610.744 287.175 610.604 286.297 610.604C285.095 610.604 284.094 610.881 283.293 611.435C282.5 611.98 282.104 612.675 282.104 613.518C282.104 614.268 282.376 614.861 282.922 615.295C283.467 615.73 284.32 616.092 285.479 616.382L288.394 617.098C290.149 617.524 291.457 618.176 292.318 619.054C293.179 619.923 293.609 621.044 293.609 622.416C293.609 623.541 293.286 624.547 292.638 625.433C291.999 626.32 291.104 627.018 289.953 627.53C288.803 628.041 287.465 628.297 285.939 628.297C283.936 628.297 282.278 627.862 280.966 626.993C279.653 626.123 278.823 624.854 278.473 623.183L281.337 622.467C281.609 623.524 282.125 624.317 282.884 624.845C283.651 625.373 284.652 625.638 285.888 625.638C287.294 625.638 288.411 625.339 289.237 624.743C290.073 624.138 290.49 623.413 290.49 622.57C290.49 621.888 290.251 621.317 289.774 620.856C289.297 620.388 288.564 620.038 287.575 619.808L284.303 619.041C282.504 618.615 281.183 617.954 280.34 617.06C279.504 616.156 279.087 615.027 279.087 613.672C279.087 612.564 279.398 611.584 280.02 610.731C280.651 609.879 281.507 609.21 282.59 608.724C283.68 608.239 284.916 607.996 286.297 607.996C288.24 607.996 289.766 608.422 290.874 609.274C291.99 610.126 292.783 611.251 293.251 612.649ZM297.431 627.888V608.251H300.448V627.888H297.431ZM298.965 604.979C298.377 604.979 297.87 604.778 297.444 604.378C297.026 603.977 296.817 603.496 296.817 602.933C296.817 602.371 297.026 601.889 297.444 601.489C297.87 601.088 298.377 600.888 298.965 600.888C299.553 600.888 300.056 601.088 300.474 601.489C300.9 601.889 301.113 602.371 301.113 602.933C301.113 603.496 300.9 603.977 300.474 604.378C300.056 604.778 299.553 604.979 298.965 604.979ZM319.163 612.649L316.453 613.416C316.282 612.964 316.031 612.525 315.699 612.099C315.375 611.665 314.932 611.307 314.369 611.025C313.807 610.744 313.086 610.604 312.208 610.604C311.007 610.604 310.005 610.881 309.204 611.435C308.412 611.98 308.015 612.675 308.015 613.518C308.015 614.268 308.288 614.861 308.833 615.295C309.379 615.73 310.231 616.092 311.39 616.382L314.305 617.098C316.061 617.524 317.369 618.176 318.23 619.054C319.091 619.923 319.521 621.044 319.521 622.416C319.521 623.541 319.197 624.547 318.549 625.433C317.91 626.32 317.015 627.018 315.865 627.53C314.714 628.041 313.376 628.297 311.851 628.297C309.848 628.297 308.19 627.862 306.878 626.993C305.565 626.123 304.734 624.854 304.385 623.183L307.248 622.467C307.521 623.524 308.037 624.317 308.795 624.845C309.562 625.373 310.564 625.638 311.799 625.638C313.206 625.638 314.322 625.339 315.149 624.743C315.984 624.138 316.402 623.413 316.402 622.57C316.402 621.888 316.163 621.317 315.686 620.856C315.208 620.388 314.476 620.038 313.487 619.808L310.214 619.041C308.416 618.615 307.095 617.954 306.251 617.06C305.416 616.156 304.998 615.027 304.998 613.672C304.998 612.564 305.309 611.584 305.932 610.731C306.562 609.879 307.419 609.21 308.501 608.724C309.592 608.239 310.828 607.996 312.208 607.996C314.152 607.996 315.677 608.422 316.785 609.274C317.902 610.126 318.694 611.251 319.163 612.649ZM340.725 628.297C338.952 628.297 337.397 627.875 336.059 627.031C334.729 626.187 333.689 625.007 332.939 623.49C332.198 621.973 331.827 620.2 331.827 618.172C331.827 616.126 332.198 614.341 332.939 612.815C333.689 611.29 334.729 610.105 336.059 609.261C337.397 608.418 338.952 607.996 340.725 607.996C342.498 607.996 344.049 608.418 345.378 609.261C346.716 610.105 347.756 611.29 348.498 612.815C349.248 614.341 349.623 616.126 349.623 618.172C349.623 620.2 349.248 621.973 348.498 623.49C347.756 625.007 346.716 626.187 345.378 627.031C344.049 627.875 342.498 628.297 340.725 628.297ZM340.725 625.587C342.071 625.587 343.179 625.241 344.049 624.551C344.918 623.861 345.561 622.953 345.979 621.828C346.397 620.703 346.606 619.484 346.606 618.172C346.606 616.859 346.397 615.636 345.979 614.503C345.561 613.369 344.918 612.453 344.049 611.754C343.179 611.055 342.071 610.706 340.725 610.706C339.378 610.706 338.27 611.055 337.401 611.754C336.532 612.453 335.888 613.369 335.471 614.503C335.053 615.636 334.844 616.859 334.844 618.172C334.844 619.484 335.053 620.703 335.471 621.828C335.888 622.953 336.532 623.861 337.401 624.551C338.27 625.241 339.378 625.587 340.725 625.587ZM362.252 608.251V610.808H351.667V608.251H362.252ZM354.838 627.888V605.541C354.838 604.416 355.102 603.479 355.63 602.729C356.159 601.979 356.845 601.416 357.688 601.041C358.532 600.666 359.423 600.479 360.36 600.479C361.102 600.479 361.707 600.538 362.176 600.658C362.644 600.777 362.994 600.888 363.224 600.99L362.355 603.598C362.201 603.547 361.988 603.483 361.715 603.406C361.451 603.329 361.102 603.291 360.667 603.291C359.67 603.291 358.95 603.543 358.507 604.045C358.072 604.548 357.855 605.285 357.855 606.257V627.888H354.838ZM375.281 627.888V601.706H379.103V611.435H379.333C379.555 611.025 379.874 610.552 380.292 610.016C380.71 609.479 381.289 609.01 382.031 608.609C382.772 608.2 383.752 607.996 384.971 607.996C386.556 607.996 387.971 608.396 389.215 609.197C390.46 609.998 391.436 611.153 392.143 612.662C392.859 614.17 393.217 615.986 393.217 618.108C393.217 620.23 392.863 622.05 392.156 623.567C391.448 625.075 390.477 626.239 389.241 627.057C388.005 627.866 386.595 628.271 385.009 628.271C383.816 628.271 382.84 628.071 382.082 627.67C381.332 627.27 380.744 626.801 380.318 626.264C379.892 625.727 379.563 625.25 379.333 624.832H379.014V627.888H375.281ZM379.026 618.07C379.026 619.45 379.227 620.66 379.627 621.7C380.028 622.74 380.607 623.554 381.366 624.142C382.124 624.722 383.053 625.011 384.153 625.011C385.295 625.011 386.249 624.709 387.017 624.104C387.784 623.49 388.363 622.659 388.755 621.611C389.156 620.562 389.356 619.382 389.356 618.07C389.356 616.774 389.16 615.611 388.768 614.579C388.384 613.548 387.805 612.734 387.029 612.138C386.262 611.541 385.303 611.243 384.153 611.243C383.045 611.243 382.107 611.528 381.34 612.099C380.582 612.67 380.007 613.467 379.615 614.49C379.222 615.513 379.026 616.706 379.026 618.07ZM405.06 628.284C403.219 628.284 401.613 627.862 400.241 627.018C398.869 626.175 397.803 624.994 397.045 623.477C396.286 621.96 395.907 620.187 395.907 618.159C395.907 616.122 396.286 614.341 397.045 612.815C397.803 611.29 398.869 610.105 400.241 609.261C401.613 608.418 403.219 607.996 405.06 607.996C406.901 607.996 408.508 608.418 409.88 609.261C411.252 610.105 412.317 611.29 413.076 612.815C413.835 614.341 414.214 616.122 414.214 618.159C414.214 620.187 413.835 621.96 413.076 623.477C412.317 624.994 411.252 626.175 409.88 627.018C408.508 627.862 406.901 628.284 405.06 628.284ZM405.073 625.075C406.266 625.075 407.255 624.76 408.039 624.129C408.823 623.498 409.403 622.659 409.778 621.611C410.161 620.562 410.353 619.408 410.353 618.146C410.353 616.893 410.161 615.743 409.778 614.695C409.403 613.638 408.823 612.79 408.039 612.15C407.255 611.511 406.266 611.192 405.073 611.192C403.871 611.192 402.874 611.511 402.082 612.15C401.298 612.79 400.714 613.638 400.33 614.695C399.955 615.743 399.768 616.893 399.768 618.146C399.768 619.408 399.955 620.562 400.33 621.611C400.714 622.659 401.298 623.498 402.082 624.129C402.874 624.76 403.871 625.075 405.073 625.075ZM426.927 608.251V611.32H416.201V608.251H426.927ZM419.077 603.547H422.9V622.122C422.9 622.864 423.01 623.422 423.232 623.797C423.454 624.163 423.739 624.415 424.089 624.551C424.447 624.679 424.834 624.743 425.252 624.743C425.559 624.743 425.827 624.722 426.057 624.679C426.287 624.636 426.466 624.602 426.594 624.577L427.285 627.734C427.063 627.82 426.748 627.905 426.339 627.99C425.929 628.084 425.418 628.135 424.804 628.143C423.799 628.16 422.861 627.981 421.992 627.606C421.123 627.231 420.42 626.652 419.883 625.868C419.346 625.084 419.077 624.099 419.077 622.915V603.547ZM439.601 608.251V611.32H428.875V608.251H439.601ZM431.752 603.547H435.574V622.122C435.574 622.864 435.685 623.422 435.907 623.797C436.128 624.163 436.414 624.415 436.763 624.551C437.121 624.679 437.509 624.743 437.926 624.743C438.233 624.743 438.502 624.722 438.732 624.679C438.962 624.636 439.141 624.602 439.269 624.577L439.959 627.734C439.738 627.82 439.422 627.905 439.013 627.99C438.604 628.084 438.093 628.135 437.479 628.143C436.473 628.16 435.536 627.981 434.667 627.606C433.797 627.231 433.094 626.652 432.557 625.868C432.02 625.084 431.752 624.099 431.752 622.915V603.547ZM447.354 601.706V627.888H443.531V601.706H447.354ZM460.239 628.284C458.305 628.284 456.638 627.871 455.241 627.044C453.852 626.209 452.778 625.037 452.019 623.528C451.269 622.011 450.894 620.234 450.894 618.197C450.894 616.186 451.269 614.413 452.019 612.879C452.778 611.345 453.835 610.148 455.19 609.287C456.553 608.426 458.147 607.996 459.971 607.996C461.079 607.996 462.153 608.179 463.192 608.545C464.232 608.912 465.165 609.487 465.992 610.271C466.819 611.055 467.471 612.074 467.948 613.327C468.425 614.571 468.664 616.084 468.664 617.865V619.22H453.055V616.356H464.918C464.918 615.351 464.714 614.46 464.305 613.685C463.896 612.9 463.32 612.283 462.579 611.831C461.846 611.379 460.985 611.153 459.996 611.153C458.923 611.153 457.985 611.418 457.184 611.946C456.391 612.466 455.778 613.148 455.343 613.991C454.917 614.827 454.704 615.734 454.704 616.714V618.952C454.704 620.264 454.934 621.381 455.394 622.301C455.863 623.222 456.515 623.925 457.35 624.41C458.185 624.888 459.161 625.126 460.278 625.126C461.002 625.126 461.663 625.024 462.259 624.82C462.856 624.606 463.371 624.291 463.806 623.873C464.241 623.456 464.573 622.94 464.803 622.327L468.421 622.979C468.131 624.044 467.611 624.977 466.861 625.778C466.12 626.571 465.187 627.189 464.062 627.632C462.945 628.067 461.671 628.284 460.239 628.284ZM476.008 616.229V627.888H472.185V608.251H475.854V611.447H476.097C476.549 610.408 477.256 609.572 478.219 608.942C479.191 608.311 480.414 607.996 481.888 607.996C483.226 607.996 484.398 608.277 485.404 608.839C486.41 609.393 487.189 610.22 487.743 611.32C488.297 612.419 488.574 613.778 488.574 615.398V627.888H484.752V615.858C484.752 614.435 484.381 613.322 483.64 612.521C482.898 611.712 481.88 611.307 480.584 611.307C479.698 611.307 478.91 611.498 478.219 611.882C477.537 612.266 476.996 612.828 476.596 613.57C476.204 614.302 476.008 615.189 476.008 616.229ZM501.444 628.284C499.509 628.284 497.843 627.871 496.445 627.044C495.056 626.209 493.982 625.037 493.224 623.528C492.474 622.011 492.099 620.234 492.099 618.197C492.099 616.186 492.474 614.413 493.224 612.879C493.982 611.345 495.039 610.148 496.394 609.287C497.758 608.426 499.352 607.996 501.175 607.996C502.283 607.996 503.357 608.179 504.397 608.545C505.437 608.912 506.37 609.487 507.197 610.271C508.023 611.055 508.675 612.074 509.153 613.327C509.63 614.571 509.869 616.084 509.869 617.865V619.22H494.259V616.356H506.123C506.123 615.351 505.918 614.46 505.509 613.685C505.1 612.9 504.525 612.283 503.783 611.831C503.05 611.379 502.19 611.153 501.201 611.153C500.127 611.153 499.19 611.418 498.388 611.946C497.596 612.466 496.982 613.148 496.548 613.991C496.121 614.827 495.908 615.734 495.908 616.714V618.952C495.908 620.264 496.138 621.381 496.599 622.301C497.067 623.222 497.719 623.925 498.555 624.41C499.39 624.888 500.366 625.126 501.482 625.126C502.207 625.126 502.867 625.024 503.464 624.82C504.06 624.606 504.576 624.291 505.011 623.873C505.445 623.456 505.778 622.94 506.008 622.327L509.626 622.979C509.336 624.044 508.816 624.977 508.066 625.778C507.325 626.571 506.391 627.189 505.266 627.632C504.15 628.067 502.876 628.284 501.444 628.284ZM521.661 628.284C519.76 628.284 518.124 627.854 516.752 626.993C515.388 626.123 514.34 624.926 513.607 623.4C512.874 621.875 512.508 620.128 512.508 618.159C512.508 616.165 512.883 614.405 513.633 612.879C514.383 611.345 515.439 610.148 516.803 609.287C518.167 608.426 519.773 607.996 521.623 607.996C523.114 607.996 524.444 608.273 525.611 608.827C526.779 609.372 527.721 610.139 528.437 611.128C529.161 612.116 529.591 613.271 529.728 614.592H526.008C525.803 613.672 525.334 612.879 524.601 612.214C523.877 611.55 522.905 611.217 521.687 611.217C520.621 611.217 519.688 611.498 518.887 612.061C518.094 612.615 517.476 613.408 517.033 614.439C516.59 615.462 516.368 616.672 516.368 618.07C516.368 619.501 516.586 620.737 517.02 621.777C517.455 622.817 518.069 623.622 518.861 624.193C519.662 624.764 520.604 625.05 521.687 625.05C522.411 625.05 523.067 624.918 523.655 624.653C524.252 624.381 524.75 623.993 525.151 623.49C525.56 622.987 525.846 622.382 526.008 621.675H529.728C529.591 622.945 529.178 624.078 528.488 625.075C527.797 626.072 526.873 626.856 525.714 627.427C524.563 627.998 523.212 628.284 521.661 628.284ZM536.611 621.227L536.586 616.561H537.25L545.074 608.251H549.651L540.728 617.712H540.127L536.611 621.227ZM533.095 627.888V601.706H536.918V627.888H533.095ZM545.496 627.888L538.465 618.555L541.098 615.883L550.188 627.888H545.496ZM561.222 635.251V608.251H564.955V611.435H565.274C565.496 611.025 565.816 610.552 566.233 610.016C566.651 609.479 567.23 609.01 567.972 608.609C568.713 608.2 569.693 607.996 570.912 607.996C572.497 607.996 573.912 608.396 575.157 609.197C576.401 609.998 577.377 611.153 578.084 612.662C578.8 614.17 579.158 615.986 579.158 618.108C579.158 620.23 578.804 622.05 578.097 623.567C577.389 625.075 576.418 626.239 575.182 627.057C573.946 627.866 572.536 628.271 570.951 628.271C569.757 628.271 568.782 628.071 568.023 627.67C567.273 627.27 566.685 626.801 566.259 626.264C565.833 625.727 565.505 625.25 565.274 624.832H565.044V635.251H561.222ZM564.968 618.07C564.968 619.45 565.168 620.66 565.568 621.7C565.969 622.74 566.549 623.554 567.307 624.142C568.066 624.722 568.995 625.011 570.094 625.011C571.236 625.011 572.191 624.709 572.958 624.104C573.725 623.49 574.304 622.659 574.696 621.611C575.097 620.562 575.297 619.382 575.297 618.07C575.297 616.774 575.101 615.611 574.709 614.579C574.326 613.548 573.746 612.734 572.97 612.138C572.203 611.541 571.245 611.243 570.094 611.243C568.986 611.243 568.049 611.528 567.282 612.099C566.523 612.67 565.948 613.467 565.556 614.49C565.164 615.513 564.968 616.706 564.968 618.07ZM590.992 628.284C589.151 628.284 587.544 627.862 586.172 627.018C584.8 626.175 583.735 624.994 582.976 623.477C582.218 621.96 581.839 620.187 581.839 618.159C581.839 616.122 582.218 614.341 582.976 612.815C583.735 611.29 584.8 610.105 586.172 609.261C587.544 608.418 589.151 607.996 590.992 607.996C592.833 607.996 594.439 608.418 595.812 609.261C597.184 610.105 598.249 611.29 599.008 612.815C599.766 614.341 600.145 616.122 600.145 618.159C600.145 620.187 599.766 621.96 599.008 623.477C598.249 624.994 597.184 626.175 595.812 627.018C594.439 627.862 592.833 628.284 590.992 628.284ZM591.005 625.075C592.198 625.075 593.187 624.76 593.971 624.129C594.755 623.498 595.334 622.659 595.709 621.611C596.093 620.562 596.285 619.408 596.285 618.146C596.285 616.893 596.093 615.743 595.709 614.695C595.334 613.638 594.755 612.79 593.971 612.15C593.187 611.511 592.198 611.192 591.005 611.192C589.803 611.192 588.806 611.511 588.013 612.15C587.229 612.79 586.645 613.638 586.262 614.695C585.887 615.743 585.699 616.893 585.699 618.146C585.699 619.408 585.887 620.562 586.262 621.611C586.645 622.659 587.229 623.498 588.013 624.129C588.806 624.76 589.803 625.075 591.005 625.075ZM603.692 627.888V608.251H607.514V627.888H603.692ZM605.622 605.222C604.958 605.222 604.387 605 603.909 604.557C603.441 604.105 603.206 603.568 603.206 602.946C603.206 602.315 603.441 601.778 603.909 601.335C604.387 600.883 604.958 600.658 605.622 600.658C606.287 600.658 606.854 600.883 607.323 601.335C607.8 601.778 608.039 602.315 608.039 602.946C608.039 603.568 607.8 604.105 607.323 604.557C606.854 605 606.287 605.222 605.622 605.222ZM615.759 616.229V627.888H611.937V608.251H615.606V611.447H615.849C616.301 610.408 617.008 609.572 617.971 608.942C618.943 608.311 620.166 607.996 621.64 607.996C622.978 607.996 624.15 608.277 625.156 608.839C626.161 609.393 626.941 610.22 627.495 611.32C628.049 612.419 628.326 613.778 628.326 615.398V627.888H624.504V615.858C624.504 614.435 624.133 613.322 623.391 612.521C622.65 611.712 621.632 611.307 620.336 611.307C619.45 611.307 618.661 611.498 617.971 611.882C617.289 612.266 616.748 612.828 616.347 613.57C615.955 614.302 615.759 615.189 615.759 616.229ZM641.899 608.251V611.32H631.173V608.251H641.899ZM634.049 603.547H637.872V622.122C637.872 622.864 637.983 623.422 638.204 623.797C638.426 624.163 638.711 624.415 639.061 624.551C639.419 624.679 639.806 624.743 640.224 624.743C640.531 624.743 640.799 624.722 641.029 624.679C641.259 624.636 641.438 624.602 641.566 624.577L642.257 627.734C642.035 627.82 641.72 627.905 641.311 627.99C640.902 628.084 640.39 628.135 639.777 628.143C638.771 628.16 637.833 627.981 636.964 627.606C636.095 627.231 635.392 626.652 634.855 625.868C634.318 625.084 634.049 624.099 634.049 622.915V603.547ZM659.805 613.045L656.341 613.659C656.196 613.216 655.966 612.794 655.65 612.393C655.343 611.993 654.926 611.665 654.397 611.409C653.869 611.153 653.208 611.025 652.416 611.025C651.333 611.025 650.43 611.268 649.706 611.754C648.981 612.231 648.619 612.849 648.619 613.608C648.619 614.264 648.862 614.793 649.348 615.193C649.833 615.594 650.618 615.922 651.7 616.177L654.819 616.893C656.626 617.311 657.973 617.954 658.859 618.824C659.745 619.693 660.189 620.822 660.189 622.212C660.189 623.388 659.848 624.436 659.166 625.356C658.493 626.268 657.551 626.984 656.341 627.504C655.139 628.024 653.745 628.284 652.16 628.284C649.961 628.284 648.167 627.815 646.778 626.878C645.389 625.932 644.537 624.589 644.221 622.851L647.916 622.288C648.146 623.251 648.619 623.98 649.335 624.474C650.051 624.96 650.984 625.203 652.135 625.203C653.387 625.203 654.389 624.943 655.139 624.423C655.889 623.895 656.264 623.251 656.264 622.493C656.264 621.879 656.034 621.364 655.574 620.946C655.122 620.528 654.427 620.213 653.49 620L650.166 619.271C648.333 618.854 646.978 618.189 646.101 617.277C645.231 616.365 644.797 615.21 644.797 613.812C644.797 612.653 645.12 611.639 645.768 610.77C646.416 609.9 647.311 609.223 648.453 608.737C649.595 608.243 650.903 607.996 652.378 607.996C654.5 607.996 656.17 608.456 657.389 609.376C658.608 610.288 659.413 611.511 659.805 613.045ZM673.268 627.888V608.251H676.285V627.888H673.268ZM674.802 604.979C674.214 604.979 673.707 604.778 673.281 604.378C672.863 603.977 672.655 603.496 672.655 602.933C672.655 602.371 672.863 601.889 673.281 601.489C673.707 601.088 674.214 600.888 674.802 600.888C675.39 600.888 675.893 601.088 676.311 601.489C676.737 601.889 676.95 602.371 676.95 602.933C676.95 603.496 676.737 603.977 676.311 604.378C675.893 604.778 675.39 604.979 674.802 604.979ZM684.108 616.075V627.888H681.091V608.251H684.006V611.32H684.262C684.722 610.322 685.421 609.521 686.358 608.916C687.296 608.302 688.506 607.996 689.989 607.996C691.318 607.996 692.482 608.268 693.479 608.814C694.476 609.351 695.252 610.169 695.806 611.268C696.36 612.359 696.637 613.74 696.637 615.41V627.888H693.62V615.615C693.62 614.072 693.219 612.871 692.418 612.01C691.617 611.141 690.517 610.706 689.12 610.706C688.156 610.706 687.296 610.915 686.537 611.332C685.787 611.75 685.195 612.359 684.76 613.16C684.326 613.962 684.108 614.933 684.108 616.075ZM719.375 608.251V610.808H709.198V608.251H719.375ZM712.164 603.547H715.181V622.263C715.181 623.115 715.305 623.754 715.552 624.18C715.808 624.598 716.132 624.879 716.524 625.024C716.924 625.16 717.346 625.229 717.789 625.229C718.122 625.229 718.394 625.212 718.607 625.177C718.821 625.135 718.991 625.101 719.119 625.075L719.732 627.785C719.528 627.862 719.242 627.939 718.876 628.016C718.509 628.101 718.045 628.143 717.482 628.143C716.63 628.143 715.795 627.96 714.977 627.594C714.167 627.227 713.494 626.669 712.957 625.919C712.428 625.169 712.164 624.223 712.164 623.081V603.547ZM726.632 616.075V627.888H723.615V601.706H726.632V611.32H726.887C727.348 610.305 728.038 609.5 728.959 608.903C729.887 608.298 731.123 607.996 732.666 607.996C734.004 607.996 735.176 608.264 736.182 608.801C737.187 609.329 737.967 610.143 738.521 611.243C739.084 612.334 739.365 613.723 739.365 615.41V627.888H736.348V615.615C736.348 614.055 735.943 612.849 735.133 611.997C734.332 611.136 733.22 610.706 731.797 610.706C730.808 610.706 729.922 610.915 729.137 611.332C728.362 611.75 727.748 612.359 727.297 613.16C726.853 613.962 726.632 614.933 726.632 616.075ZM752.397 628.297C750.505 628.297 748.873 627.879 747.501 627.044C746.137 626.2 745.085 625.024 744.343 623.516C743.61 621.998 743.244 620.234 743.244 618.223C743.244 616.212 743.61 614.439 744.343 612.905C745.085 611.362 746.116 610.16 747.437 609.3C748.767 608.43 750.318 607.996 752.09 607.996C753.113 607.996 754.123 608.166 755.12 608.507C756.117 608.848 757.025 609.402 757.843 610.169C758.661 610.927 759.313 611.933 759.799 613.186C760.285 614.439 760.528 615.981 760.528 617.814V619.092H745.392V616.484H757.46C757.46 615.376 757.238 614.388 756.795 613.518C756.36 612.649 755.738 611.963 754.928 611.46C754.127 610.957 753.181 610.706 752.09 610.706C750.889 610.706 749.849 611.004 748.971 611.601C748.102 612.189 747.433 612.956 746.964 613.902C746.495 614.848 746.261 615.862 746.261 616.945V618.683C746.261 620.166 746.517 621.423 747.028 622.454C747.548 623.477 748.268 624.257 749.188 624.794C750.109 625.322 751.178 625.587 752.397 625.587C753.19 625.587 753.906 625.476 754.545 625.254C755.193 625.024 755.751 624.683 756.22 624.231C756.688 623.771 757.051 623.2 757.306 622.518L760.221 623.337C759.914 624.325 759.399 625.195 758.674 625.945C757.95 626.686 757.055 627.266 755.99 627.683C754.924 628.092 753.727 628.297 752.397 628.297ZM786.177 619.859V608.251H789.194V627.888H786.177V624.564H785.973C785.513 625.561 784.797 626.409 783.825 627.108C782.854 627.798 781.626 628.143 780.143 628.143C778.916 628.143 777.825 627.875 776.871 627.338C775.916 626.793 775.166 625.974 774.621 624.883C774.075 623.784 773.802 622.399 773.802 620.729V608.251H776.819V620.524C776.819 621.956 777.22 623.098 778.021 623.95C778.831 624.802 779.862 625.229 781.115 625.229C781.865 625.229 782.628 625.037 783.403 624.653C784.187 624.27 784.844 623.682 785.372 622.889C785.909 622.097 786.177 621.087 786.177 619.859ZM807.909 612.649L805.199 613.416C805.029 612.964 804.777 612.525 804.445 612.099C804.121 611.665 803.678 611.307 803.115 611.025C802.553 610.744 801.833 610.604 800.955 610.604C799.753 610.604 798.752 610.881 797.951 611.435C797.158 611.98 796.762 612.675 796.762 613.518C796.762 614.268 797.034 614.861 797.58 615.295C798.125 615.73 798.978 616.092 800.137 616.382L803.052 617.098C804.807 617.524 806.115 618.176 806.976 619.054C807.837 619.923 808.267 621.044 808.267 622.416C808.267 623.541 807.944 624.547 807.296 625.433C806.657 626.32 805.762 627.018 804.611 627.53C803.461 628.041 802.123 628.297 800.597 628.297C798.594 628.297 796.936 627.862 795.624 626.993C794.311 626.123 793.48 624.854 793.131 623.183L795.995 622.467C796.267 623.524 796.783 624.317 797.542 624.845C798.309 625.373 799.31 625.638 800.546 625.638C801.952 625.638 803.069 625.339 803.895 624.743C804.73 624.138 805.148 623.413 805.148 622.57C805.148 621.888 804.909 621.317 804.432 620.856C803.955 620.388 803.222 620.038 802.233 619.808L798.961 619.041C797.162 618.615 795.841 617.954 794.998 617.06C794.162 616.156 793.745 615.027 793.745 613.672C793.745 612.564 794.056 611.584 794.678 610.731C795.309 609.879 796.165 609.21 797.248 608.724C798.338 608.239 799.574 607.996 800.955 607.996C802.898 607.996 804.424 608.422 805.532 609.274C806.648 610.126 807.441 611.251 807.909 612.649ZM820.322 628.297C818.43 628.297 816.798 627.879 815.426 627.044C814.062 626.2 813.009 625.024 812.268 623.516C811.535 621.998 811.168 620.234 811.168 618.223C811.168 616.212 811.535 614.439 812.268 612.905C813.009 611.362 814.041 610.16 815.362 609.3C816.691 608.43 818.242 607.996 820.015 607.996C821.038 607.996 822.048 608.166 823.045 608.507C824.042 608.848 824.95 609.402 825.768 610.169C826.586 610.927 827.238 611.933 827.724 613.186C828.21 614.439 828.453 615.981 828.453 617.814V619.092H813.316V616.484H825.384C825.384 615.376 825.163 614.388 824.72 613.518C824.285 612.649 823.663 611.963 822.853 611.46C822.052 610.957 821.106 610.706 820.015 610.706C818.813 610.706 817.774 611.004 816.896 611.601C816.026 612.189 815.357 612.956 814.889 613.902C814.42 614.848 814.186 615.862 814.186 616.945V618.683C814.186 620.166 814.441 621.423 814.953 622.454C815.472 623.477 816.193 624.257 817.113 624.794C818.034 625.322 819.103 625.587 820.322 625.587C821.115 625.587 821.83 625.476 822.47 625.254C823.117 625.024 823.676 624.683 824.144 624.231C824.613 623.771 824.975 623.2 825.231 622.518L828.146 623.337C827.839 624.325 827.323 625.195 826.599 625.945C825.874 626.686 824.98 627.266 823.914 627.683C822.849 628.092 821.651 628.297 820.322 628.297ZM832.322 627.888V608.251H835.237V611.217H835.441C835.799 610.246 836.447 609.457 837.385 608.852C838.322 608.247 839.379 607.945 840.555 607.945C840.777 607.945 841.054 607.949 841.386 607.957C841.718 607.966 841.97 607.979 842.14 607.996V611.064C842.038 611.038 841.804 611 841.437 610.949C841.079 610.889 840.7 610.859 840.299 610.859C839.345 610.859 838.493 611.06 837.743 611.46C837.001 611.852 836.413 612.398 835.978 613.097C835.552 613.787 835.339 614.575 835.339 615.462V627.888H832.322ZM854.402 608.251H857.419V629.32C857.419 630.53 857.21 631.578 856.792 632.464C856.383 633.351 855.761 634.037 854.926 634.523C854.099 635.008 853.055 635.251 851.794 635.251C851.691 635.251 851.589 635.251 851.487 635.251C851.385 635.251 851.282 635.251 851.18 635.251V632.439C851.282 632.439 851.376 632.439 851.461 632.439C851.547 632.439 851.64 632.439 851.743 632.439C852.663 632.439 853.336 632.166 853.762 631.621C854.189 631.084 854.402 630.317 854.402 629.32V608.251ZM855.885 604.979C855.297 604.979 854.789 604.778 854.363 604.378C853.946 603.977 853.737 603.496 853.737 602.933C853.737 602.371 853.946 601.889 854.363 601.489C854.789 601.088 855.297 600.888 855.885 600.888C856.473 600.888 856.975 601.088 857.393 601.489C857.819 601.889 858.032 602.371 858.032 602.933C858.032 603.496 857.819 603.977 857.393 604.378C856.975 604.778 856.473 604.979 855.885 604.979ZM870.202 628.297C868.429 628.297 866.874 627.875 865.536 627.031C864.206 626.187 863.166 625.007 862.416 623.49C861.675 621.973 861.304 620.2 861.304 618.172C861.304 616.126 861.675 614.341 862.416 612.815C863.166 611.29 864.206 610.105 865.536 609.261C866.874 608.418 868.429 607.996 870.202 607.996C871.975 607.996 873.526 608.418 874.855 609.261C876.193 610.105 877.233 611.29 877.975 612.815C878.725 614.341 879.1 616.126 879.1 618.172C879.1 620.2 878.725 621.973 877.975 623.49C877.233 625.007 876.193 626.187 874.855 627.031C873.526 627.875 871.975 628.297 870.202 628.297ZM870.202 625.587C871.548 625.587 872.656 625.241 873.526 624.551C874.395 623.861 875.038 622.953 875.456 621.828C875.874 620.703 876.083 619.484 876.083 618.172C876.083 616.859 875.874 615.636 875.456 614.503C875.038 613.369 874.395 612.453 873.526 611.754C872.656 611.055 871.548 610.706 870.202 610.706C868.855 610.706 867.747 611.055 866.878 611.754C866.009 612.453 865.365 613.369 864.948 614.503C864.53 615.636 864.321 616.859 864.321 618.172C864.321 619.484 864.53 620.703 864.948 621.828C865.365 622.953 866.009 623.861 866.878 624.551C867.747 625.241 868.855 625.587 870.202 625.587ZM895.36 619.859V608.251H898.377V627.888H895.36V624.564H895.156C894.695 625.561 893.979 626.409 893.008 627.108C892.036 627.798 890.809 628.143 889.326 628.143C888.099 628.143 887.008 627.875 886.053 627.338C885.099 626.793 884.349 625.974 883.803 624.883C883.258 623.784 882.985 622.399 882.985 620.729V608.251H886.002V620.524C886.002 621.956 886.403 623.098 887.204 623.95C888.013 624.802 889.045 625.229 890.298 625.229C891.048 625.229 891.81 625.037 892.586 624.653C893.37 624.27 894.026 623.682 894.555 622.889C895.092 622.097 895.36 621.087 895.36 619.859ZM903.183 627.888V608.251H906.098V611.217H906.302C906.66 610.246 907.308 609.457 908.245 608.852C909.183 608.247 910.24 607.945 911.416 607.945C911.638 607.945 911.915 607.949 912.247 607.957C912.579 607.966 912.831 607.979 913.001 607.996V611.064C912.899 611.038 912.665 611 912.298 610.949C911.94 610.889 911.561 610.859 911.16 610.859C910.206 610.859 909.353 611.06 908.603 611.46C907.862 611.852 907.274 612.398 906.839 613.097C906.413 613.787 906.2 614.575 906.2 615.462V627.888H903.183ZM918.875 616.075V627.888H915.858V608.251H918.772V611.32H919.028C919.488 610.322 920.187 609.521 921.125 608.916C922.062 608.302 923.272 607.996 924.755 607.996C926.085 607.996 927.248 608.268 928.245 608.814C929.242 609.351 930.018 610.169 930.572 611.268C931.126 612.359 931.403 613.74 931.403 615.41V627.888H928.386V615.615C928.386 614.072 927.985 612.871 927.184 612.01C926.383 611.141 925.284 610.706 923.886 610.706C922.923 610.706 922.062 610.915 921.304 611.332C920.554 611.75 919.961 612.359 919.527 613.16C919.092 613.962 918.875 614.933 918.875 616.075ZM944.429 628.297C942.537 628.297 940.905 627.879 939.533 627.044C938.169 626.2 937.117 625.024 936.375 623.516C935.642 621.998 935.276 620.234 935.276 618.223C935.276 616.212 935.642 614.439 936.375 612.905C937.117 611.362 938.148 610.16 939.469 609.3C940.798 608.43 942.35 607.996 944.122 607.996C945.145 607.996 946.155 608.166 947.152 608.507C948.149 608.848 949.057 609.402 949.875 610.169C950.693 610.927 951.345 611.933 951.831 613.186C952.317 614.439 952.56 615.981 952.56 617.814V619.092H937.423V616.484H949.492C949.492 615.376 949.27 614.388 948.827 613.518C948.392 612.649 947.77 611.963 946.96 611.46C946.159 610.957 945.213 610.706 944.122 610.706C942.921 610.706 941.881 611.004 941.003 611.601C940.134 612.189 939.465 612.956 938.996 613.902C938.527 614.848 938.293 615.862 938.293 616.945V618.683C938.293 620.166 938.548 621.423 939.06 622.454C939.58 623.477 940.3 624.257 941.22 624.794C942.141 625.322 943.21 625.587 944.429 625.587C945.222 625.587 945.938 625.476 946.577 625.254C947.225 625.024 947.783 624.683 948.252 624.231C948.72 623.771 949.082 623.2 949.338 622.518L952.253 623.337C951.946 624.325 951.43 625.195 950.706 625.945C949.982 626.686 949.087 627.266 948.021 627.683C946.956 628.092 945.759 628.297 944.429 628.297ZM957.775 635.251C957.263 635.251 956.807 635.209 956.407 635.123C956.006 635.047 955.729 634.97 955.576 634.893L956.343 632.234C957.076 632.422 957.724 632.49 958.286 632.439C958.849 632.388 959.347 632.136 959.782 631.685C960.225 631.241 960.63 630.521 960.996 629.524L961.559 627.99L954.298 608.251H957.57L962.991 623.899H963.195L968.616 608.251H971.888L963.553 630.751C963.178 631.766 962.714 632.605 962.16 633.27C961.606 633.943 960.962 634.442 960.229 634.766C959.505 635.089 958.687 635.251 957.775 635.251ZM976.119 628.092C975.488 628.092 974.947 627.866 974.495 627.415C974.044 626.963 973.818 626.422 973.818 625.791C973.818 625.16 974.044 624.619 974.495 624.168C974.947 623.716 975.488 623.49 976.119 623.49C976.75 623.49 977.291 623.716 977.743 624.168C978.194 624.619 978.42 625.16 978.42 625.791C978.42 626.209 978.314 626.592 978.101 626.942C977.896 627.291 977.619 627.572 977.27 627.785C976.929 627.99 976.545 628.092 976.119 628.092Z" fill="black" fill-opacity="0.6"/>
</svg>
